<?xml version="1.0" standalone="no"?>
<!DOCTYPE svg PUBLIC "-//W3C//DTD SVG 20010904//EN"
 "http://www.w3.org/TR/2001/REC-SVG-20010904/DTD/svg10.dtd">
<svg version="1.0" xmlns="http://www.w3.org/2000/svg"
 width="680.000000pt" height="680.000000pt" viewBox="0 0 680.000000 680.000000"
 preserveAspectRatio="xMidYMid meet">

<g transform="translate(0.000000,680.000000) scale(0.100000,-0.100000)"
fill="#000000" stroke="none">
<path d="M2625 5993 c-92 -9 -295 -45 -406 -73 -491 -124 -970 -400 -1339
-770 -498 -500 -803 -1182 -871 -1948 -15 -172 -7 -575 16 -737 55 -404 195
-862 333 -1085 145 -235 388 -412 670 -487 86 -23 116 -26 262 -26 145 0 176
3 261 25 269 72 498 228 639 435 30 43 55 80 56 82 2 2 18 -8 36 -23 111 -89
247 -186 338 -240 1030 -613 2382 -406 3290 504 319 318 542 683 704 1149 26
74 48 146 49 160 2 15 7 32 11 39 4 7 4 16 1 22 -3 5 -1 10 6 10 6 0 9 8 6 20
-3 11 -1 23 5 26 5 3 8 15 5 25 -3 10 -1 22 4 25 5 3 9 10 9 15 0 6 -7 3 -16
-5 -15 -15 -29 -20 -47 -17 -5 1 -6 -3 -2 -8 3 -6 11 -9 18 -7 7 1 9 1 4 -1
-4 -3 -5 -8 -3 -12 3 -4 -5 -7 -17 -6 -14 1 -21 8 -21 18 1 9 -2 14 -8 11 -5
-3 -6 -15 -2 -26 4 -14 2 -18 -5 -14 -6 4 -12 0 -12 -8 -3 -30 -4 -34 -13 -43
-5 -4 -6 -3 -2 4 3 6 2 14 -4 18 -6 4 -4 15 6 30 10 16 12 25 4 30 -6 3 -10 3
-9 -2 3 -20 -2 -34 -11 -28 -6 4 -8 10 -6 14 3 4 -1 8 -9 8 -8 0 -12 -4 -9 -9
3 -4 1 -8 -5 -8 -5 0 -11 3 -14 8 -2 4 -2 0 1 -8 2 -8 5 -20 5 -27 0 -7 4 -10
9 -7 5 3 6 9 3 14 -3 5 -1 11 4 14 5 4 12 2 15 -3 4 -5 2 -12 -4 -16 -6 -4 -7
-11 -4 -17 4 -7 2 -8 -4 -4 -7 4 -12 1 -12 -6 0 -9 -3 -9 -10 2 -8 12 -10 12
-10 1 0 -8 -3 -11 -6 -8 -4 4 -2 13 4 20 7 8 9 17 5 20 -3 4 -13 -2 -21 -14
-11 -16 -17 -17 -28 -8 -7 6 -12 15 -9 19 3 5 -3 7 -12 6 -10 -2 -16 -6 -15
-11 5 -11 -20 -25 -31 -18 -5 3 -3 9 4 14 10 6 7 8 -8 6 -17 -1 -19 -4 -11
-14 10 -12 0 -18 -24 -14 -5 0 -7 -2 -7 -7 3 -19 -2 -23 -16 -12 -13 11 -14
10 -9 -5 5 -13 4 -16 -4 -11 -7 4 -12 3 -12 -3 0 -5 -13 -12 -30 -16 -16 -4
-30 -11 -30 -16 0 -5 -9 -9 -20 -9 -11 0 -20 -5 -20 -11 0 -8 -4 -8 -14 0 -11
9 -16 9 -22 0 -5 -8 -3 -9 6 -4 9 6 11 4 5 -4 -5 -9 -10 -10 -18 -2 -7 7 -20
2 -42 -15 -17 -13 -38 -24 -46 -24 -8 0 -21 -6 -28 -12 -11 -11 -12 -10 -6 0
6 12 3 12 -16 2 -13 -7 -27 -17 -30 -22 -3 -5 -17 -10 -30 -12 -13 -1 -32 -6
-41 -10 -10 -5 -25 -5 -34 -2 -8 3 -13 2 -10 -3 3 -4 -18 -20 -47 -34 -167
-81 -253 -122 -260 -122 -4 0 -11 -5 -15 -12 -4 -6 -20 -15 -36 -19 -22 -5
-27 -4 -21 6 5 9 4 11 -4 6 -6 -4 -9 -11 -6 -15 2 -5 -7 -13 -20 -19 -14 -7
-25 -15 -25 -20 0 -5 -7 -9 -15 -9 -8 0 -15 4 -15 9 0 4 -9 8 -21 8 -11 0 -17
-4 -14 -10 3 -5 -3 -10 -15 -10 -12 0 -19 -4 -16 -9 3 -4 -5 -7 -19 -6 -19 3
-23 -1 -20 -17 3 -16 1 -17 -9 -8 -19 15 -66 2 -90 -26 -19 -20 -21 -21 -34
-5 -7 9 -11 11 -8 5 3 -7 -3 -14 -14 -17 -11 -3 -18 -1 -14 4 3 5 0 9 -5 9 -6
0 -11 -6 -11 -14 0 -8 -9 -13 -22 -12 -13 1 -36 -6 -53 -16 -35 -21 -65 -23
-85 -5 -12 10 -12 9 -1 -5 11 -15 11 -19 -3 -24 -9 -3 -13 -10 -10 -15 3 -5 1
-9 -5 -9 -5 0 -11 6 -13 12 -3 9 -12 8 -32 -6 -16 -10 -37 -16 -47 -13 -10 3
-17 1 -13 -4 3 -5 -1 -9 -8 -9 -8 0 -15 12 -16 28 -1 22 0 24 9 12 9 -12 10
-12 5 3 -4 12 -2 17 6 14 7 -2 12 -10 10 -16 -1 -7 2 -10 8 -6 6 3 8 11 5 16
-4 5 3 9 13 9 11 0 22 7 26 15 3 8 1 15 -3 15 -5 0 -11 -6 -14 -12 -3 -10 -8
-10 -21 1 -14 12 -16 12 -11 -1 4 -11 -1 -14 -17 -13 -13 1 -21 6 -18 11 3 5
9 8 13 6 5 -1 6 2 2 8 -5 8 -11 8 -20 0 -10 -9 -16 -7 -24 8 -9 16 -2 30 41
83 172 214 307 487 378 764 33 133 50 281 50 457 0 336 -62 603 -214 913 -268
546 -772 970 -1391 1168 -264 85 -493 118 -795 115 -113 -1 -223 -3 -245 -5z
m942 -1409 c176 -26 361 -98 508 -197 84 -58 218 -188 287 -281 110 -147 191
-346 219 -536 18 -125 7 -342 -24 -460 -119 -456 -482 -796 -944 -886 -117
-23 -319 -23 -436 0 -569 110 -977 602 -977 1176 0 310 114 598 327 821 272
286 657 420 1040 363z m2885 -1556 c-4 -16 -2 -19 8 -13 9 5 11 4 6 -3 -13
-22 -26 -12 -24 17 1 16 5 28 9 25 4 -2 5 -14 1 -26z m-30 -7 c8 11 9 11 6 1
-4 -16 -22 -18 -25 -2 -1 7 0 6 4 -1 4 -8 8 -7 15 2z m-20 -38 c-1 -2 -4 -2
-7 0 -2 1 -10 -7 -18 -17 -11 -15 -16 -16 -22 -6 -5 9 -4 11 3 6 7 -4 12 -2
12 3 0 6 -4 11 -10 11 -5 0 -2 8 8 18 15 16 18 16 26 3 6 -9 9 -17 8 -18z
m-1615 -503 c-3 -11 -1 -20 4 -20 5 0 9 5 9 11 0 8 4 8 14 -1 11 -8 12 -18 6
-35 -5 -13 -7 -25 -4 -27 2 -3 -3 -5 -11 -5 -9 0 -11 4 -6 11 6 7 4 16 -4 23
-11 10 -15 10 -18 0 -3 -7 -3 4 -2 23 4 42 3 40 11 40 4 0 4 -9 1 -20z m-30
-52 c-3 -8 -6 -5 -6 6 -1 11 2 17 5 13 3 -3 4 -12 1 -19z m-2134 -432 c-3 -5
-1 -6 5 -2 6 3 16 -3 22 -14 6 -11 8 -20 4 -20 -4 0 0 -8 9 -18 10 -10 14 -22
10 -27 -5 -4 -3 -5 4 -2 11 7 12 31 1 43 -9 9 2 35 13 29 4 -3 6 -12 3 -19 -3
-8 -1 -17 5 -21 8 -4 8 -12 1 -25 -7 -13 -6 -21 5 -30 8 -7 12 -17 8 -23 -3
-6 7 -21 23 -35 16 -13 22 -22 12 -19 -17 6 -19 -16 -3 -30 4 -4 5 -3 1 4 -6
10 28 30 45 25 4 -1 5 7 2 18 -3 11 -9 18 -13 15 -5 -3 -11 -1 -14 4 -4 5 -2
12 3 16 5 3 8 14 6 25 -2 12 0 18 5 15 5 -3 7 -13 5 -23 -4 -23 15 -49 40 -54
11 -2 19 -11 19 -19 -1 -11 6 -14 21 -11 27 5 68 -15 59 -29 -3 -5 0 -18 7
-27 11 -13 9 -13 -8 2 -25 21 -24 25 -9 -44 3 -11 1 -21 -5 -21 -5 -1 -15 -2
-21 -3 -7 -1 -12 -6 -11 -12 1 -5 -7 -11 -18 -11 -11 -1 -17 3 -13 8 4 7 0 7
-12 0 -21 -11 -55 -24 -67 -25 -4 -1 -12 -7 -16 -15 -5 -7 -14 -10 -20 -7 -6
4 -11 2 -11 -3 0 -6 -9 -11 -19 -11 -11 0 -21 -5 -23 -10 -2 -6 -13 -12 -26
-13 -12 0 -22 -5 -22 -10 0 -5 -9 -7 -19 -4 -14 3 -18 1 -14 -9 3 -8 0 -14 -6
-14 -6 0 -11 6 -12 13 0 10 -2 10 -6 0 -2 -7 -11 -13 -18 -13 -8 0 -21 -7 -29
-16 -9 -9 -16 -11 -16 -4 0 6 -5 8 -10 5 -6 -4 -8 -11 -4 -16 3 -5 2 -8 -3 -7
-15 4 -54 -23 -47 -34 5 -7 2 -8 -5 -3 -9 5 -10 10 -2 18 6 6 11 15 11 21 0 5
-8 0 -17 -10 -10 -10 -24 -19 -30 -20 -38 -3 -43 -5 -43 -18 0 -8 -7 -17 -16
-20 -14 -5 -15 -4 -4 9 11 13 10 14 -3 10 -8 -4 -17 -16 -20 -27 -4 -12 -10
-17 -17 -13 -7 4 -16 1 -21 -6 -6 -10 -8 -6 -6 11 1 14 56 120 122 235 186
323 219 375 226 363 4 -7 5 -16 2 -22z m35 15 c8 -5 12 -15 10 -24 -2 -12 -7
-10 -21 9 -18 24 -13 31 11 15z m87 -103 c5 4 5 1 1 -5 -4 -7 -2 -13 4 -13 7
0 9 -7 6 -16 -4 -10 1 -25 10 -35 21 -23 11 -24 -22 -3 -14 10 -23 23 -20 30
3 7 -2 18 -9 24 -8 7 -12 16 -9 22 4 5 11 5 18 -1 7 -6 17 -7 21 -3z m160 -88
c-3 -5 -12 -10 -18 -10 -7 0 -6 4 3 10 19 12 23 12 15 0z"/>
<path d="M6376 2992 c-3 -5 1 -9 9 -9 8 0 12 4 9 9 -3 4 -7 8 -9 8 -2 0 -6 -4
-9 -8z"/>
<path d="M2721 1895 c9 -11 14 -26 12 -32 -6 -18 4 -16 10 1 3 8 -4 22 -16 33
-22 18 -22 18 -6 -2z"/>
<path d="M6483 3059 c-2 -23 3 -25 10 -4 4 8 3 16 -1 19 -4 3 -9 -4 -9 -15z"/>
</g>
</svg>
