<?xml version="1.0" standalone="no"?>
<!DOCTYPE svg PUBLIC "-//W3C//DTD SVG 20010904//EN"
 "http://www.w3.org/TR/2001/REC-SVG-20010904/DTD/svg10.dtd">
<svg version="1.0" xmlns="http://www.w3.org/2000/svg"
 width="348.000000pt" height="345.000000pt" viewBox="0 0 348.000000 345.000000"
 preserveAspectRatio="xMidYMid meet">

<g transform="translate(0.000000,345.000000) scale(0.100000,-0.100000)"
fill="#000000" stroke="none">
<path d="M1120 3163 l0 -284 143 -68 c78 -38 262 -127 410 -199 l267 -131 202
142 c111 78 201 146 201 151 -1 6 -128 79 -284 164 -156 85 -431 234 -611 332
l-328 178 0 -285z"/>
<path d="M1130 2075 c0 -574 2 -696 13 -693 8 2 293 156 635 342 l621 339 3
324 c2 177 3 323 2 323 -2 0 -421 -430 -928 -953 -159 -163 -290 -296 -292
-295 -1 2 74 239 167 526 93 288 169 528 169 535 -1 10 -346 234 -378 245 -9
3 -12 -166 -12 -693z"/>
<path d="M1181 1161 c-19 -12 -6 -41 19 -41 16 0 21 5 18 22 -3 25 -17 32 -37
19z"/>
<path d="M2528 1159 c-12 -7 -18 -22 -18 -49 0 -33 -3 -40 -20 -40 -11 0 -20
-7 -20 -15 0 -8 9 -15 20 -15 19 0 20 -7 20 -116 0 -88 3 -115 13 -112 8 3 13
38 15 116 3 112 3 112 27 112 16 0 25 6 25 15 0 9 -10 15 -26 15 -23 0 -25 3
-22 33 2 26 7 32 26 31 25 -1 30 21 6 30 -21 8 -26 7 -46 -5z"/>
<path d="M2660 1115 c0 -38 -3 -45 -20 -45 -11 0 -20 -7 -20 -15 0 -8 9 -15
20 -15 18 0 20 -8 22 -112 2 -78 7 -113 16 -116 9 -3 12 24 12 112 l0 116 30
0 c20 0 30 5 30 15 0 10 -10 15 -30 15 -29 0 -30 2 -30 45 0 33 -4 45 -15 45
-11 0 -15 -12 -15 -45z"/>
<path d="M772 988 c-26 -190 -26 -178 -8 -178 9 0 17 27 25 93 24 179 15 176
86 31 l62 -129 58 123 c32 67 61 122 65 122 3 0 12 -44 19 -97 16 -128 20
-143 38 -143 11 0 13 8 9 28 -3 15 -12 79 -21 142 -27 197 -18 194 -98 35
l-70 -140 -68 138 c-38 75 -70 137 -72 137 -2 0 -13 -73 -25 -162z"/>
<path d="M1180 940 c0 -109 2 -130 15 -130 13 0 15 21 15 130 0 109 -2 130
-15 130 -13 0 -15 -21 -15 -130z"/>
<path d="M1319 1047 c-22 -15 -39 -38 -49 -65 -30 -88 33 -172 129 -172 44 0
111 29 111 48 0 20 -14 20 -40 2 -55 -39 -139 -21 -169 37 -41 80 45 172 133
143 19 -6 40 -17 46 -25 13 -15 30 -11 30 6 0 5 -15 18 -32 29 -46 28 -115 26
-159 -3z"/>
<path d="M1562 943 c2 -90 7 -128 16 -131 9 -3 12 17 13 75 1 109 19 155 60
158 12 1 25 7 27 13 5 17 -44 15 -62 -3 -8 -8 -17 -15 -20 -15 -3 0 -6 7 -6
15 0 8 -7 15 -15 15 -13 0 -15 -18 -13 -127z"/>
<path d="M1756 1051 c-41 -27 -55 -57 -56 -115 0 -43 4 -53 39 -87 33 -33 45
-39 82 -39 62 0 103 28 124 84 17 44 17 48 0 92 -30 78 -121 109 -189 65z
m120 -20 c42 -26 60 -78 44 -126 -15 -45 -44 -65 -96 -65 -127 0 -121 204 6
209 8 1 29 -8 46 -18z"/>
<path d="M2017 1052 c-10 -10 -17 -33 -17 -51 0 -27 7 -36 47 -61 56 -36 68
-53 53 -80 -12 -22 -49 -27 -80 -10 -13 7 -21 7 -26 -1 -10 -17 25 -39 63 -39
44 0 73 30 73 75 0 31 -6 39 -50 67 -60 40 -67 55 -40 82 20 20 22 20 50 4 34
-19 53 -5 24 17 -27 20 -78 18 -97 -3z"/>
<path d="M2218 1030 c-39 -39 -40 -42 -36 -97 4 -49 9 -60 41 -90 30 -27 45
-33 79 -33 54 0 100 27 121 73 21 43 21 67 3 111 -21 51 -60 76 -119 76 -44 0
-53 -4 -89 -40z m139 0 c42 -25 62 -85 43 -130 -17 -42 -46 -60 -96 -60 -127
0 -121 204 6 209 8 1 29 -8 47 -19z"/>
<path d="M1850 585 c-15 -17 -5 -35 20 -35 22 0 33 23 17 39 -15 15 -22 14
-37 -4z"/>
<path d="M235 579 c-3 -8 -4 -87 -3 -174 l3 -160 86 1 c106 1 144 19 177 84
46 92 16 191 -71 236 -15 8 -63 17 -107 21 -64 5 -81 3 -85 -8z m157 -29 c77
-22 116 -115 82 -199 -22 -54 -72 -80 -156 -81 l-58 0 0 145 0 145 48 0 c26 0
64 -5 84 -10z"/>
<path d="M2569 561 c-16 -16 -29 -34 -29 -40 0 -20 29 -11 46 14 12 19 25 25
53 25 44 0 61 -14 61 -50 0 -29 -24 -56 -54 -61 -32 -6 -29 -26 5 -33 46 -9
69 -33 69 -73 0 -49 -30 -75 -83 -71 -35 2 -45 9 -62 35 -24 38 -50 45 -40 11
11 -39 61 -78 101 -78 43 0 89 23 105 51 20 38 13 88 -15 118 -24 25 -25 28
-9 44 10 9 17 32 17 53 0 80 -105 115 -165 55z"/>
<path d="M2875 492 c-35 -53 -67 -112 -71 -129 -19 -95 90 -160 164 -98 36 30
47 66 32 111 -13 37 -37 55 -88 63 l-32 6 44 67 c35 52 42 67 30 72 -10 4 -34
-24 -79 -92z m84 -108 c12 -15 21 -34 21 -44 0 -10 -9 -29 -21 -44 -41 -52
-129 -22 -129 44 0 66 88 96 129 44z"/>
<path d="M3106 573 c-4 -14 -26 -131 -26 -138 0 -1 24 0 53 3 49 4 56 2 75
-23 26 -32 28 -65 7 -104 -25 -49 -91 -57 -123 -16 -11 14 -27 25 -36 25 -13
0 -14 -4 -4 -26 15 -32 56 -54 104 -54 54 0 104 53 104 109 0 78 -52 131 -116
118 -25 -4 -26 -3 -20 32 3 20 6 42 6 49 0 8 19 12 60 12 47 0 60 3 60 15 0
12 -14 15 -69 15 -58 0 -71 -3 -75 -17z"/>
<path d="M563 468 c8 -18 31 -71 52 -118 l36 -85 -20 -50 c-25 -59 -25 -65 -8
-65 8 0 46 74 90 175 62 144 72 175 58 175 -12 0 -28 -27 -57 -95 -21 -52 -41
-95 -44 -95 -3 0 -24 42 -46 92 -26 60 -46 94 -58 96 -16 3 -16 1 -3 -30z"/>
<path d="M822 373 c2 -90 7 -128 16 -131 9 -3 12 17 12 78 0 94 15 131 60 150
39 16 76 2 90 -36 6 -14 10 -64 10 -110 0 -64 3 -85 13 -81 8 3 12 33 12 105
0 93 -2 102 -24 126 -32 34 -96 36 -135 5 l-26 -20 0 20 c0 12 -6 21 -15 21
-13 0 -15 -18 -13 -127z"/>
<path d="M1141 474 c-120 -100 12 -296 146 -215 31 19 31 19 36 -1 5 -18 30
-23 28 -5 -1 4 -1 61 -1 127 0 100 -2 120 -15 120 -9 0 -15 -9 -15 -21 l0 -20
-26 20 c-40 31 -113 29 -153 -5z m130 -10 c37 -18 63 -74 54 -114 -17 -77
-115 -108 -167 -52 -49 53 -42 127 16 163 38 23 58 24 97 3z"/>
<path d="M1422 373 c2 -90 7 -128 16 -131 9 -3 12 14 12 65 0 74 13 135 33
151 26 22 63 24 87 4 22 -18 24 -28 27 -118 2 -72 6 -99 15 -99 9 0 14 24 16
85 1 47 7 95 13 107 14 27 61 47 89 38 31 -10 40 -44 40 -146 0 -68 3 -90 13
-87 14 5 22 132 12 186 -9 47 -37 72 -83 72 -28 0 -45 -7 -62 -25 l-23 -25
-23 25 c-30 32 -90 34 -128 4 l-26 -20 0 20 c0 12 -6 21 -15 21 -13 0 -15 -18
-13 -127z"/>
<path d="M1852 373 c2 -90 7 -128 16 -131 9 -3 12 27 12 127 0 111 -2 131 -15
131 -13 0 -15 -18 -13 -127z"/>
<path d="M1994 481 c-44 -27 -70 -96 -55 -144 6 -18 25 -46 41 -62 51 -49 155
-44 199 8 20 25 -6 31 -35 8 -33 -26 -100 -28 -133 -5 -63 44 -58 143 9 177
42 22 94 17 124 -12 13 -13 26 -17 34 -12 10 6 5 15 -18 35 -40 33 -118 36
-166 7z"/>
<path d="M2263 492 c-6 -4 -16 -19 -22 -33 -13 -37 5 -69 57 -97 44 -24 55
-55 30 -80 -15 -15 -64 -16 -73 -2 -9 15 -25 12 -25 -5 0 -38 85 -47 118 -12
41 44 23 95 -46 131 -32 17 -45 38 -36 61 9 23 41 28 68 10 17 -11 26 -13 31
-5 16 26 -69 53 -102 32z"/>
</g>
</svg>
