<?xml version="1.0" standalone="no"?>
<!DOCTYPE svg PUBLIC "-//W3C//DTD SVG 20010904//EN"
 "http://www.w3.org/TR/2001/REC-SVG-20010904/DTD/svg10.dtd">
<svg version="1.0" xmlns="http://www.w3.org/2000/svg"
 width="300.000000pt" height="135.000000pt" viewBox="0 0 300.000000 135.000000"
 preserveAspectRatio="xMidYMid meet">

<g transform="translate(0.000000,135.000000) scale(0.100000,-0.100000)"
fill="#000000" stroke="none">
<path d="M2070 1189 c-120 -23 -245 -123 -297 -236 -57 -124 -38 -300 45 -408
158 -207 454 -222 631 -30 145 157 138 405 -16 558 -57 58 -119 92 -205 112
-70 16 -92 17 -158 4z m205 -108 c62 -28 130 -94 162 -160 37 -75 39 -189 4
-267 -28 -63 -100 -136 -166 -166 -76 -34 -191 -33 -266 5 -66 32 -132 99
-162 165 -27 60 -29 165 -4 239 32 91 120 173 217 200 58 17 158 9 215 -16z"/>
<path d="M2086 945 c-9 -26 -7 -32 5 -12 6 10 9 21 6 23 -2 3 -7 -2 -11 -11z"/>
<path d="M2136 923 c-6 -14 -5 -15 5 -6 7 7 10 15 7 18 -3 3 -9 -2 -12 -12z"/>
<path d="M2106 865 c-9 -26 -7 -32 5 -12 6 10 9 21 6 23 -2 3 -7 -2 -11 -11z"/>
<path d="M2293 733 c-15 -5 -17 -23 -4 -23 5 0 11 7 15 15 3 8 4 15 3 14 -1 0
-8 -3 -14 -6z"/>
<path d="M2320 670 c-6 -11 -8 -20 -6 -20 3 0 10 9 16 20 6 11 8 20 6 20 -3 0
-10 -9 -16 -20z"/>
<path d="M2597 813 c-4 -3 -7 -18 -7 -32 0 -25 2 -26 44 -23 94 8 162 -58 154
-148 -6 -62 -37 -103 -227 -308 l-142 -152 220 0 221 0 0 30 0 29 -149 3 -149
3 119 130 c144 156 173 208 167 294 -8 109 -86 181 -194 181 -28 0 -54 -3 -57
-7z"/>
<path d="M1270 466 c0 -2 8 -10 18 -17 15 -13 16 -12 3 4 -13 16 -21 21 -21
13z"/>
</g>
</svg>
